<?xml version="1.0" encoding="utf-8"?>
<!-- Generator: Adobe Illustrator 22.0.1, SVG Export Plug-In . SVG Version: 6.00 Build 0)  -->
<svg version="1.1" id="Layer_1" xmlns="http://www.w3.org/2000/svg" xmlns:xlink="http://www.w3.org/1999/xlink" x="0px" y="0px"
	 viewBox="0 0 72 72" style="enable-background:new 0 0 72 72;" xml:space="preserve">
<style type="text/css">
	.st0{fill:#F07800;}
</style>
<g>
	<path class="st0" d="M24.8,14.4c-3.5,0-7.1,1.3-9.8,4c-5.3,5.1-5.5,13.7-0.3,19c0.1,0.1,0.2,0.2,0.3,0.3l19.9,19.5
		c0.6,0.6,1.5,0.6,2.1,0l20-19.5c5.3-5.1,5.5-13.7,0.3-19c-0.1-0.1-0.2-0.2-0.3-0.3l-0.2-0.2c-5.5-5.1-14-5-19.4,0.2L36,19.7
		l-1.4-1.3C31.9,15.7,28.4,14.4,24.8,14.4z"/>
</g>
</svg>
